<svg xmlns="http://www.w3.org/2000/svg" viewBox="0 0 512 512" style="height: 512px; width: 512px;"><path d="M0 0h512v512H0z" fill="url(#pattern)" fill-opacity="1"></path><svg><defs><filter id="b" x="-.024" width="1.048" y="-.024" height="1.048" color-interpolation-filters="sRGB"><feGaussianBlur stdDeviation="4.823"></feGaussianBlur></filter><filter id="a" x="-.012" width="1.024" y="-.012" height="1.024" color-interpolation-filters="sRGB"><feGaussianBlur stdDeviation="2.55"></feGaussianBlur></filter><filter id="c" x="-.112" width="1.225" y="-.077" height="1.153" color-interpolation-filters="sRGB"><feGaussianBlur stdDeviation="15.63"></feGaussianBlur></filter><filter id="e" x="-.237" width="1.475" y="-.249" height="1.497" color-interpolation-filters="sRGB"><feGaussianBlur stdDeviation="18.7"></feGaussianBlur></filter><filter id="d" x="-.213" width="1.426" y="-.151" height="1.303" color-interpolation-filters="sRGB"><feGaussianBlur stdDeviation="18.7"></feGaussianBlur></filter></defs><path d="M196.6 1.207c-2.5 11.323-4.8 22.703-10.2 33.383-7-10.68-12.6-20.91-16.7-31.988L2.494 4.338C13 104.9 10.86 175.3 1.979 278.3L15.4 295.5l-9.494 6.3L2.6 462.7l1.019 45.9 112.681 3.1c3.6-16.1 6.5-32.5 13.2-47.3 4.5 14.4 5.7 29.4 7 44.4l160 .3c.8-6.1.7-8.1 2.3-14.4 5.1 4.5 7.8 9.5 10.6 14.5.8-10.1 3.9-19.8 7-29.5 4.8 9.2 6.7 19.4 8.8 29.5l185.2.4-4.6-78.2-21.4-8.2 21.3-4.9 5.8-395.47c-7-6.73-13.3-13.744-18-21.465l-15.1.114-2.1 20.321-1.4 47.23.8 84.87-8.6-97.14c9.3-16.86 2.2-39.69 5.7-55.239-92.1 1.696-184.1.685-276.2-.314z" overflow="visible" color="#000" fill="#ebc893" fill-rule="evenodd" stroke="#e0aa58" enable-background="accumulate"></path><path d="M196.6 1.203c-2.5 11.327-4.8 22.707-10.2 33.387-7-10.68-12.6-20.91-16.7-31.99L2.494 4.336C13 104.9 10.86 175.3 1.979 278.3L15.4 295.5l-9.494 6.3L2.6 462.7l1.019 45.9 112.681 3.1c.5-2.1-7.9-2.3-7.4-4.5L5.244 504.5l-.914-47.3 4.63-153.7 12.42-9-13.093-16.8C16.95 177.3 16.36 104 6.113 5.992l162.687.164c4 10.804 10.3 24.254 17.1 34.664 5.3-10.41 9.5-25.97 12-37.02 89.8.974 173.8 3.521 263.6 1.867 4.6 1.226 10.6.431 11.3-4.149-92.1 1.696-184.1.684-276.2-.315zm296.9.158l-15.1.116-.6 6.277 13.5-2.557c4.6 7.533 9.7 12.383 16.6 18.943l-4.6 389.06-19.9 9.9 4.1-.6 18.2-4.2 5.8-395.47c-7-6.73-13.3-13.748-18-21.469zm9.6 435.739l3.5 69.7-177.7.1c.4 2.1-4.1.2-3.7 2.3l185.2.4-4.6-78.2zm-370 25.1c-1 2.2-2.9.4-3.7 2.6 4.2 14 5.8 29.5 7.1 44l158 .3c1.9-5 .8-9.7 4.3-14.4 5.1 4.5 7.8 9.5 10.6 14.5.8-10.1 3.9-19.8 7-29.5 1.8 3.4 3.2 7 4.3 10.6-1.4-5.6-2.4-8.3-5.1-13.4-3 9.4-6.7 16.2-7.5 26-2.7-4.9-5.4-9.7-10.4-14.1-3.4 4.6-6.2 9.1-8 14l-147.6 3.4c-3.4-14.6-7.1-30.3-9-44z" overflow="visible" color="#000" opacity=".527" fill="#c87137" fill-rule="evenodd" filter="url(#a)" enable-background="accumulate"></path><path d="M200.1 16.1c-2.3 10.67-10.5 21.38-15.6 31.44-6.6-10.06-13.9-19.69-17.7-30.12L17.34 19.05C24.61 113.6 7.605 179.3 16.85 277l18.26 20.1L10.34 309l7.1 141.6.96 43.3 90.2 3.4c3.4-15.2 15-35.6 21.3-49.6 4.3 13.6 15.4 36.7 16.6 50.9l45.1.8 13.8-18.7 14.4 22.2 68.7-8.6c1.8-4.7 4.5-9.1 7.8-13.5 4.8 4.2 7.4 8.9 10 13.6.8-9.5 7.7-19.6 10.6-28.7 4.5 8.6 19.9 28.9 33.1 33.9l114.6 5.6 22.3-14.7 19.4 14.7-14.5-67.6-34.6-14.2 37.5-15.1 2.1-96.9-14.5-21.9 15.2-13.4 5.1-239.63c-5.2-21.09-11.8-24.89-16.9-20.22l-4.2 2.11 2 19.14.7 44.47-7.1 124.23-18.3-137.78c8.8-15.88-3.9-35.38-.6-50.02-67.1 1.24-140.4-13.332-202.8-3.28-14 2.25-23.7 21.31-36.9 24.48-4.3 1.03-13.9-23.45-18.4-23.5z" overflow="visible" enable-background="accumulate" filter="url(#b)" fill-rule="evenodd" fill="#f6e7d0" color="#000"></path><path d="M354 27.39l-70.3 96.91 46.4 97.6-56.2 43.6 33 74.4-30.2 63.2 69.8 48.8 31.6 29.5 31.6-13.3L365.9 335l55.5-36.5 2.1-146.1-56.9-101.83zM116.6 55.48L89.9 123.6s33.7 65.3 35.8 68.8c2.1 3.6-7 118-7 118l42.8 73.8s9.9-82.9 7.1-83.6c-2.8-.7-29.5-42.1-29.5-42.1l23.8-84.3-36.5-37.2z" color="#000" overflow="visible" fill="#f2dbb9" fill-rule="evenodd" filter="url(#c)" enable-background="accumulate"></path><path d="M39.33 172.1l-5.62 108.1L74.45 328 42.84 464.9l96.96-39.3 30.2 42.9 74.4-38.7-80.8-169.9-60.4-16.9z" color="#000" overflow="visible" fill="#eed3a4" fill-rule="evenodd" enable-background="accumulate" filter="url(#d)"></path><path d="M266.9 66.72L324.5 191 434 221.2l21.8-111.6-41.4-68.86z" color="#000" overflow="visible" fill="#eed3a4" fill-rule="evenodd" enable-background="accumulate" filter="url(#e)"></path></svg><g class="" transform="translate(0,0)" style=""><path d="M410.365 101.005c8.21-22.26 16.21-31.12 20.33-34.45 3.06-2.48 5.73-3.42 7.92-2.81 4 1.13 8.49 7.45 11.88 16.89 10.89 30.34 10 84.28-.93 129.51zm-286 72.92c7.52-31 10.28-66.13 7.77-94.92l-43.6-4.86zm289.46-113l-301.2-33.53c-2.5-.28-5.24 1.46-7.11 3-3.67 3-10.42 10.32-17.66 27.64l308.68 34.34c5.16-13.25 11.02-23.89 17.31-31.43zm-228.78 298.71v-70.72l10.76 1.19 42.24 5.18v70.51zm16-40.34a13 13 0 0 0 5.34 10.29l-2.34 24.42 17 1.74-4-25a9.54 9.54 0 0 0 5-9.15 13.64 13.64 0 0 0-11.06-12.59s.17.1.13.1c-5.95-.68-11.07 3.9-10.07 10.1zm53 64.45l-85-9.84v-86.72l-1.05-.09a8.14 8.14 0 0 1-7.27 6.71 8 8 0 0 1 5.23 8.9 8 8 0 0 1-8 6.66c8.453 4.004 4.341 16.778-4.86 15.1a8 8 0 0 1-8 13.8 8.01 8.01 0 0 1-12.28 10.29v.09a8 8 0 0 1-3.86 8.37l9.13 5.35v14.25l-12 7.13-12-7.12v-14.26l8.15-4.82a8.21 8.21 0 0 1-5.07-5.92.418.418 0 0 1 0-.1 8 8 0 0 1-15.18-5c-6.851 7.214-18.094-2.065-12.31-10.16-8.346 4.519-16.217-6.676-9.14-13-9.17 2.661-14.453-10.083-6.09-14.69a8 8 0 0 1-3.21-15.67c-9.294-1.047-9.548-14.463-.3-15.86-.669-.164-1.264-.473-1.83-.76l-17.24-1.86.6 167.11 309.18 34.49-.6-165.83-107-13.05zm140.06-164l4.72 1.91.91.58 38.72 4.31-23.26-64.77-12.82 37c-.16.46-3.41 9.8-8.27 20.99zm-208.54-39.74l5 5.49 12.75-11.15 21.45-2.28 16.61 15.35 10.51 8.73 18.54-9.29 3.44.5c.12-.67.25-1.34.38-2 3.08-16.1 7.35-30.16 7.53-30.75l13.39-43.91 16.88 42.71 8.42 21.42 10.66-12.39 22.14-25.73 5.78 33.45 3.29 19.1 17.1-9.64 35.09-19.79-18.48-51.4-247.86-27.61c2.51 34.94-1.85 77.32-12.39 112h2.32l7-12.86h40.46zm-111.29 97.39c7.6 2.1 7.9 12.766.43 15.29 7.737.867 9.802 11.153 3 14.94 7.653-.548 11.614 8.947 5.84 14 7.313-2.115 13.168 6.216 8.7 12.38 6.288-3.518 13.657 2.417 11.56 9.31 4.53-4.723 12.506-2.304 13.65 4.14 2.057-5.713 9.48-7.141 13.51-2.6-1.285-6.404 5.23-11.566 11.17-8.85-4.564-5.77.425-14.123 7.67-12.84-6.419-4.541-3.122-14.648 4.74-14.53-7.316-3.503-5.375-14.415 2.7-15.18a8 8 0 0 1-5.38-8l-76.43-8.26c-.41.19-.746.15-1.16.2zm367.54 139.08l-.59-163.86-8.67 7-55.51 46.79.58 162zm-26.23-165.2l-24.11-15.27-4.18-1.69c-5.91 11.52-13.39 23-22.66 27.88-5.44 2.88-12.22 4.34-20.16 4.34-11.13 0-24.75-2.91-37.35-8-10-4-23.3-11-30.26-21.34-4.9-7.29-6.64-17.77-5.31-32.92l-21.78 10.93-19-15.8-11.42-10.53-9.16 1-20.45 17.83-11-11.7h-24.21l-17.61 32-5.7-7.2-4.42 4.85-10.76 16.35-12.29 4.91L97.611 256h-12.2l-2.776 6.005 76.9 8.21a8.15 8.15 0 0 1 2-2.9 8 8 0 0 1 10.31-.46 1.657 1.657 0 0 1-.14-.24c-4.955-8.368 6.459-16.62 12.87-9.375 6.412 7.245-3.167 17.571-10.87 11.635a8 8 0 0 1 1.12 2.89l22.62 2.44 168.54 20.57 51.49-43.38zm-28.34-57.73l-36.88 20.79-7.14-41.47-28 32.51-18.13-46.11s-16.65 54.58-7 69c7.69 11.45 35.42 22.25 54.33 22.25 5 0 9.43-.76 12.67-2.48 13.8-7.31 30.15-54.49 30.15-54.49zm-317.08 270.8v-.2c0-3.77-8.21-6.83-18.33-6.83-10.12 0-18.33 3.06-18.33 6.83 0 3.21 6 5.9 14 6.63v.2c0 3.77 8.21 6.83 18.33 6.83 10.12 0 18.33-3.06 18.33-6.83-.01-3.21-5.98-5.9-14-6.63zm350 6.63c-10.13 0-18.33 3.06-18.33 6.83s8.21 6.83 18.33 6.83c10.12 0 18.33-3.06 18.33-6.83s-8.25-6.8-18.38-6.8zm40-16.28c-10.13 0-18.33 3.06-18.33 6.83s8.21 6.83 18.33 6.83c10.12 0 18.33-3.06 18.33-6.83s-8.22-6.83-18.34-6.83z" fill="#fff" fill-opacity="1"></path></g></svg>