<svg xmlns="http://www.w3.org/2000/svg" viewBox="0 0 512 512" style="height: 512px; width: 512px;"><path d="M0 0h512v512H0z" fill="url(#pattern)" fill-opacity="1"></path><svg><defs><filter id="b" x="-.024" width="1.048" y="-.024" height="1.048" color-interpolation-filters="sRGB"><feGaussianBlur stdDeviation="4.823"></feGaussianBlur></filter><filter id="a" x="-.012" width="1.024" y="-.012" height="1.024" color-interpolation-filters="sRGB"><feGaussianBlur stdDeviation="2.55"></feGaussianBlur></filter><filter id="c" x="-.112" width="1.225" y="-.077" height="1.153" color-interpolation-filters="sRGB"><feGaussianBlur stdDeviation="15.63"></feGaussianBlur></filter><filter id="e" x="-.237" width="1.475" y="-.249" height="1.497" color-interpolation-filters="sRGB"><feGaussianBlur stdDeviation="18.7"></feGaussianBlur></filter><filter id="d" x="-.213" width="1.426" y="-.151" height="1.303" color-interpolation-filters="sRGB"><feGaussianBlur stdDeviation="18.7"></feGaussianBlur></filter></defs><path d="M196.6 1.207c-2.5 11.323-4.8 22.703-10.2 33.383-7-10.68-12.6-20.91-16.7-31.988L2.494 4.338C13 104.9 10.86 175.3 1.979 278.3L15.4 295.5l-9.494 6.3L2.6 462.7l1.019 45.9 112.681 3.1c3.6-16.1 6.5-32.5 13.2-47.3 4.5 14.4 5.7 29.4 7 44.4l160 .3c.8-6.1.7-8.1 2.3-14.4 5.1 4.5 7.8 9.5 10.6 14.5.8-10.1 3.9-19.8 7-29.5 4.8 9.2 6.7 19.4 8.8 29.5l185.2.4-4.6-78.2-21.4-8.2 21.3-4.9 5.8-395.47c-7-6.73-13.3-13.744-18-21.465l-15.1.114-2.1 20.321-1.4 47.23.8 84.87-8.6-97.14c9.3-16.86 2.2-39.69 5.7-55.239-92.1 1.696-184.1.685-276.2-.314z" overflow="visible" color="#000" fill="#ebc893" fill-rule="evenodd" stroke="#e0aa58" enable-background="accumulate"></path><path d="M196.6 1.203c-2.5 11.327-4.8 22.707-10.2 33.387-7-10.68-12.6-20.91-16.7-31.99L2.494 4.336C13 104.9 10.86 175.3 1.979 278.3L15.4 295.5l-9.494 6.3L2.6 462.7l1.019 45.9 112.681 3.1c.5-2.1-7.9-2.3-7.4-4.5L5.244 504.5l-.914-47.3 4.63-153.7 12.42-9-13.093-16.8C16.95 177.3 16.36 104 6.113 5.992l162.687.164c4 10.804 10.3 24.254 17.1 34.664 5.3-10.41 9.5-25.97 12-37.02 89.8.974 173.8 3.521 263.6 1.867 4.6 1.226 10.6.431 11.3-4.149-92.1 1.696-184.1.684-276.2-.315zm296.9.158l-15.1.116-.6 6.277 13.5-2.557c4.6 7.533 9.7 12.383 16.6 18.943l-4.6 389.06-19.9 9.9 4.1-.6 18.2-4.2 5.8-395.47c-7-6.73-13.3-13.748-18-21.469zm9.6 435.739l3.5 69.7-177.7.1c.4 2.1-4.1.2-3.7 2.3l185.2.4-4.6-78.2zm-370 25.1c-1 2.2-2.9.4-3.7 2.6 4.2 14 5.8 29.5 7.1 44l158 .3c1.9-5 .8-9.7 4.3-14.4 5.1 4.5 7.8 9.5 10.6 14.5.8-10.1 3.9-19.8 7-29.5 1.8 3.4 3.2 7 4.3 10.6-1.4-5.6-2.4-8.3-5.1-13.4-3 9.4-6.7 16.2-7.5 26-2.7-4.9-5.4-9.7-10.4-14.1-3.4 4.6-6.2 9.1-8 14l-147.6 3.4c-3.4-14.6-7.1-30.3-9-44z" overflow="visible" color="#000" opacity=".527" fill="#c87137" fill-rule="evenodd" filter="url(#a)" enable-background="accumulate"></path><path d="M200.1 16.1c-2.3 10.67-10.5 21.38-15.6 31.44-6.6-10.06-13.9-19.69-17.7-30.12L17.34 19.05C24.61 113.6 7.605 179.3 16.85 277l18.26 20.1L10.34 309l7.1 141.6.96 43.3 90.2 3.4c3.4-15.2 15-35.6 21.3-49.6 4.3 13.6 15.4 36.7 16.6 50.9l45.1.8 13.8-18.7 14.4 22.2 68.7-8.6c1.8-4.7 4.5-9.1 7.8-13.5 4.8 4.2 7.4 8.9 10 13.6.8-9.5 7.7-19.6 10.6-28.7 4.5 8.6 19.9 28.9 33.1 33.9l114.6 5.6 22.3-14.7 19.4 14.7-14.5-67.6-34.6-14.2 37.5-15.1 2.1-96.9-14.5-21.9 15.2-13.4 5.1-239.63c-5.2-21.09-11.8-24.89-16.9-20.22l-4.2 2.11 2 19.14.7 44.47-7.1 124.23-18.3-137.78c8.8-15.88-3.9-35.38-.6-50.02-67.1 1.24-140.4-13.332-202.8-3.28-14 2.25-23.7 21.31-36.9 24.48-4.3 1.03-13.9-23.45-18.4-23.5z" overflow="visible" enable-background="accumulate" filter="url(#b)" fill-rule="evenodd" fill="#f6e7d0" color="#000"></path><path d="M354 27.39l-70.3 96.91 46.4 97.6-56.2 43.6 33 74.4-30.2 63.2 69.8 48.8 31.6 29.5 31.6-13.3L365.9 335l55.5-36.5 2.1-146.1-56.9-101.83zM116.6 55.48L89.9 123.6s33.7 65.3 35.8 68.8c2.1 3.6-7 118-7 118l42.8 73.8s9.9-82.9 7.1-83.6c-2.8-.7-29.5-42.1-29.5-42.1l23.8-84.3-36.5-37.2z" color="#000" overflow="visible" fill="#f2dbb9" fill-rule="evenodd" filter="url(#c)" enable-background="accumulate"></path><path d="M39.33 172.1l-5.62 108.1L74.45 328 42.84 464.9l96.96-39.3 30.2 42.9 74.4-38.7-80.8-169.9-60.4-16.9z" color="#000" overflow="visible" fill="#eed3a4" fill-rule="evenodd" enable-background="accumulate" filter="url(#d)"></path><path d="M266.9 66.72L324.5 191 434 221.2l21.8-111.6-41.4-68.86z" color="#000" overflow="visible" fill="#eed3a4" fill-rule="evenodd" enable-background="accumulate" filter="url(#e)"></path></svg><g class="" transform="translate(0,0)" style=""><path d="M256 31.203c-96 .797-117.377 76.692-79.434 135.133-6.397 6.534-10.344 15.886-.566 25.664 16 16 32 16 39.852 32.42h80.296C304 208 320 208 336 192c9.778-9.778 5.831-19.13-.566-25.664C373.377 107.896 352 32 256 31.203zm-42.146 101.049c.426-.003.862.007 1.306.03 28.404 1.442 40.84 59.718-10.83 51.095-10.412-1.738-17.355-50.963 9.524-51.125zm84.292 0c26.88.162 19.936 49.387 9.524 51.125C256 192 268.436 133.724 296.84 132.28c.444-.022.88-.032 1.306-.03zM32 144c7.406 88.586 64.475 175.544 156.623 236.797 17.959-7.251 35.767-15.322 50.424-23.877C180.254 319.737 104.939 255.465 32 144zm448 0C359.2 328.605 231.863 383.797 183.908 400.797c3.177 5.374 5.997 10.98 8.711 16.432 3.878 7.789 7.581 15.251 11.184 20.986A517.457 517.457 0 0 0 256 417.973l.168.076a884.617 884.617 0 0 0 9.652-4.65C391.488 353.263 471.156 249.79 480 144zm-224 27.725l20.074 40.15L256 199.328l-20.074 12.547L256 171.725zm-65.604 57.11l15.76 51.042s31.268 24.92 49.844 24.92 49.844-24.92 49.844-24.92l15.76-51.041-27.086 19.236-8.063 16.248S267.35 279.547 256 279.547c-11.35 0-30.455-15.227-30.455-15.227l-8.063-16.248-27.086-19.236zm-59.984 152.976c-.783-.02-1.574-.011-2.375.027l.856 17.978c6.36-.302 10.814 2.416 16.11 8.64 5.298 6.222 10.32 15.707 15.24 25.589 4.918 9.882 9.707 20.12 16.122 28.45 6.415 8.327 16.202 15.446 27.969 13.89l-2.36-17.844c-4.094.541-6.78-1.099-11.349-7.031-4.57-5.933-9.275-15.46-14.268-25.489-4.992-10.029-10.297-20.604-17.644-29.234-6.888-8.09-16.556-14.686-28.3-14.976zm251.176 0c-11.745.29-21.413 6.885-28.3 14.976-7.348 8.63-12.653 19.205-17.645 29.234-4.993 10.03-9.698 19.556-14.268 25.489-4.57 5.932-7.255 7.572-11.35 7.031l-2.359 17.844c11.767 1.556 21.554-5.563 27.969-13.89 6.415-8.33 11.204-18.568 16.123-28.45 4.919-9.882 9.94-19.367 15.238-25.59 5.297-6.223 9.75-8.941 16.111-8.639l.856-17.978a32.853 32.853 0 0 0-2.375-.027zm-55.928 18.107c-13.97 10.003-30.13 18.92-47.424 27.478a524.868 524.868 0 0 0 29.961 10.819c3.603-5.735 7.306-13.197 11.184-20.986 2.714-5.453 5.534-11.058 8.71-16.432-.77-.273-1.62-.586-2.43-.879zm-191.808 23.371l-27.67 10.352 7.904 31.771 36.424-11.707c-1.418-2.814-2.81-5.649-4.207-8.457-4.048-8.131-8.169-15.961-12.451-21.959zm244.296 0c-4.282 5.998-8.403 13.828-12.45 21.959-1.399 2.808-2.79 5.643-4.208 8.457l36.424 11.707 7.904-31.771-27.67-10.352zM78.271 435.438a9.632 9.632 0 0 0-1.32.12 6.824 6.824 0 0 0-1.217.313c-11.544 4.201-25.105 18.04-21.648 29.828 3.07 10.472 19.675 13.359 30.492 11.916 3.828-.51 8.415-3.761 12.234-7.086l-8.124-32.648c-3.238-1.285-7.214-2.528-10.417-2.443zm355.458 0c-3.203-.085-7.179 1.158-10.416 2.443l-8.125 32.648c3.819 3.325 8.406 6.576 12.234 7.086 10.817 1.443 27.422-1.444 30.492-11.916 3.457-11.788-10.104-25.627-21.648-29.828a6.824 6.824 0 0 0-1.217-.312 9.632 9.632 0 0 0-1.32-.122z" fill="#fff" fill-opacity="1"></path></g></svg>