<svg xmlns="http://www.w3.org/2000/svg" viewBox="0 0 512 512" style="height: 512px; width: 512px;"><path d="M0 0h512v512H0z" fill="url(#pattern)" fill-opacity="1"></path><svg><defs><filter id="b" x="-.024" width="1.048" y="-.024" height="1.048" color-interpolation-filters="sRGB"><feGaussianBlur stdDeviation="4.823"></feGaussianBlur></filter><filter id="a" x="-.012" width="1.024" y="-.012" height="1.024" color-interpolation-filters="sRGB"><feGaussianBlur stdDeviation="2.55"></feGaussianBlur></filter><filter id="c" x="-.112" width="1.225" y="-.077" height="1.153" color-interpolation-filters="sRGB"><feGaussianBlur stdDeviation="15.63"></feGaussianBlur></filter><filter id="e" x="-.237" width="1.475" y="-.249" height="1.497" color-interpolation-filters="sRGB"><feGaussianBlur stdDeviation="18.7"></feGaussianBlur></filter><filter id="d" x="-.213" width="1.426" y="-.151" height="1.303" color-interpolation-filters="sRGB"><feGaussianBlur stdDeviation="18.7"></feGaussianBlur></filter></defs><path d="M196.6 1.207c-2.5 11.323-4.8 22.703-10.2 33.383-7-10.68-12.6-20.91-16.7-31.988L2.494 4.338C13 104.9 10.86 175.3 1.979 278.3L15.4 295.5l-9.494 6.3L2.6 462.7l1.019 45.9 112.681 3.1c3.6-16.1 6.5-32.5 13.2-47.3 4.5 14.4 5.7 29.4 7 44.4l160 .3c.8-6.1.7-8.1 2.3-14.4 5.1 4.5 7.8 9.5 10.6 14.5.8-10.1 3.9-19.8 7-29.5 4.8 9.2 6.7 19.4 8.8 29.5l185.2.4-4.6-78.2-21.4-8.2 21.3-4.9 5.8-395.47c-7-6.73-13.3-13.744-18-21.465l-15.1.114-2.1 20.321-1.4 47.23.8 84.87-8.6-97.14c9.3-16.86 2.2-39.69 5.7-55.239-92.1 1.696-184.1.685-276.2-.314z" overflow="visible" color="#000" fill="#ebc893" fill-rule="evenodd" stroke="#e0aa58" enable-background="accumulate"></path><path d="M196.6 1.203c-2.5 11.327-4.8 22.707-10.2 33.387-7-10.68-12.6-20.91-16.7-31.99L2.494 4.336C13 104.9 10.86 175.3 1.979 278.3L15.4 295.5l-9.494 6.3L2.6 462.7l1.019 45.9 112.681 3.1c.5-2.1-7.9-2.3-7.4-4.5L5.244 504.5l-.914-47.3 4.63-153.7 12.42-9-13.093-16.8C16.95 177.3 16.36 104 6.113 5.992l162.687.164c4 10.804 10.3 24.254 17.1 34.664 5.3-10.41 9.5-25.97 12-37.02 89.8.974 173.8 3.521 263.6 1.867 4.6 1.226 10.6.431 11.3-4.149-92.1 1.696-184.1.684-276.2-.315zm296.9.158l-15.1.116-.6 6.277 13.5-2.557c4.6 7.533 9.7 12.383 16.6 18.943l-4.6 389.06-19.9 9.9 4.1-.6 18.2-4.2 5.8-395.47c-7-6.73-13.3-13.748-18-21.469zm9.6 435.739l3.5 69.7-177.7.1c.4 2.1-4.1.2-3.7 2.3l185.2.4-4.6-78.2zm-370 25.1c-1 2.2-2.9.4-3.7 2.6 4.2 14 5.8 29.5 7.1 44l158 .3c1.9-5 .8-9.7 4.3-14.4 5.1 4.5 7.8 9.5 10.6 14.5.8-10.1 3.9-19.8 7-29.5 1.8 3.4 3.2 7 4.3 10.6-1.4-5.6-2.4-8.3-5.1-13.4-3 9.4-6.7 16.2-7.5 26-2.7-4.9-5.4-9.7-10.4-14.1-3.4 4.6-6.2 9.1-8 14l-147.6 3.4c-3.4-14.6-7.1-30.3-9-44z" overflow="visible" color="#000" opacity=".527" fill="#c87137" fill-rule="evenodd" filter="url(#a)" enable-background="accumulate"></path><path d="M200.1 16.1c-2.3 10.67-10.5 21.38-15.6 31.44-6.6-10.06-13.9-19.69-17.7-30.12L17.34 19.05C24.61 113.6 7.605 179.3 16.85 277l18.26 20.1L10.34 309l7.1 141.6.96 43.3 90.2 3.4c3.4-15.2 15-35.6 21.3-49.6 4.3 13.6 15.4 36.7 16.6 50.9l45.1.8 13.8-18.7 14.4 22.2 68.7-8.6c1.8-4.7 4.5-9.1 7.8-13.5 4.8 4.2 7.4 8.9 10 13.6.8-9.5 7.7-19.6 10.6-28.7 4.5 8.6 19.9 28.9 33.1 33.9l114.6 5.6 22.3-14.7 19.4 14.7-14.5-67.6-34.6-14.2 37.5-15.1 2.1-96.9-14.5-21.9 15.2-13.4 5.1-239.63c-5.2-21.09-11.8-24.89-16.9-20.22l-4.2 2.11 2 19.14.7 44.47-7.1 124.23-18.3-137.78c8.8-15.88-3.9-35.38-.6-50.02-67.1 1.24-140.4-13.332-202.8-3.28-14 2.25-23.7 21.31-36.9 24.48-4.3 1.03-13.9-23.45-18.4-23.5z" overflow="visible" enable-background="accumulate" filter="url(#b)" fill-rule="evenodd" fill="#f6e7d0" color="#000"></path><path d="M354 27.39l-70.3 96.91 46.4 97.6-56.2 43.6 33 74.4-30.2 63.2 69.8 48.8 31.6 29.5 31.6-13.3L365.9 335l55.5-36.5 2.1-146.1-56.9-101.83zM116.6 55.48L89.9 123.6s33.7 65.3 35.8 68.8c2.1 3.6-7 118-7 118l42.8 73.8s9.9-82.9 7.1-83.6c-2.8-.7-29.5-42.1-29.5-42.1l23.8-84.3-36.5-37.2z" color="#000" overflow="visible" fill="#f2dbb9" fill-rule="evenodd" filter="url(#c)" enable-background="accumulate"></path><path d="M39.33 172.1l-5.62 108.1L74.45 328 42.84 464.9l96.96-39.3 30.2 42.9 74.4-38.7-80.8-169.9-60.4-16.9z" color="#000" overflow="visible" fill="#eed3a4" fill-rule="evenodd" enable-background="accumulate" filter="url(#d)"></path><path d="M266.9 66.72L324.5 191 434 221.2l21.8-111.6-41.4-68.86z" color="#000" overflow="visible" fill="#eed3a4" fill-rule="evenodd" enable-background="accumulate" filter="url(#e)"></path></svg><g class="" transform="translate(0,0)" style=""><path d="M84.438 20.78c-.414.005-.824.01-1.25.032-2.273.113-4.742.477-7.376 1.094C65.28 24.373 52.858 31.236 42.094 42 31.33 52.763 24.467 65.186 22 75.72c-2.467 10.532-.738 18.23 3.75 22.718 3.93 3.93 10.33 5.763 18.938 4.5-1.82-5.496-1.757-11.592-.407-17.282 2.182-9.194 7.5-18.247 15.314-26.062 7.814-7.816 16.836-13.13 26.03-15.313 2.3-.544 4.695-.876 7.064-.968 3.515-.135 7.022.307 10.312 1.407 1.3-8.664-.52-15.082-4.47-19.032-3.154-3.156-7.896-4.97-14.093-4.907zm9.937 41.126c-.332-.006-.694.01-1.063.032-.98.06-2.08.23-3.343.53-5.057 1.2-11.542 4.728-17.157 10.344-5.616 5.617-9.145 12.1-10.344 17.157-1.2 5.054-.25 7.718 1.03 9l.344.343.312.406 41.344 51.25c4.423-9.226 10.846-18.254 19.03-26.44 8.186-8.183 17.214-14.607 26.44-19.03L99.72 64.156l-.407-.312-.344-.344c-.84-.84-2.273-1.552-4.595-1.594zm85.22 55.344c-.762-.02-1.564-.012-2.376.03-2.168.115-4.54.465-7.064 1.064-10.095 2.394-22.042 9.042-32.406 19.406-10.364 10.364-17.012 22.31-19.406 32.406-2.394 10.095-.727 17.367 3.5 21.594l.344.375.312.375 3.75 4.625c.046-.207.076-.418.125-.625 3.576-15.268 12.593-30.935 26.125-44.47 13.467-13.468 29.05-22.452 44.25-26.06l-4.25-3.44-.375-.343-.375-.343c-2.774-2.775-6.828-4.448-12.156-4.594zm31.186 25.656c-2.895-.01-6.086.374-9.56 1.188-11.122 2.604-24.185 9.838-35.5 21.156-11.318 11.318-18.552 24.378-21.157 35.5-2.117 9.036-1.316 16.178 1.656 21.125l.093.156 48.375 59.94c6.217-18.252 17.894-36.74 34.218-53.064 16.332-16.33 34.835-28.003 53.094-34.22L219.75 144.5c-2.557-1.017-5.562-1.583-8.97-1.594zm99.25 65.344c-.697.007-1.41.027-2.124.063-3.814.188-7.85.798-12.125 1.812-17.098 4.056-36.72 15.005-53.686 31.97-16.965 16.963-27.913 36.586-31.97 53.686-4.055 17.102-1.384 30.74 6.94 39.064l.342.344.313.406.31.406c.4-3.643 1.045-7.318 1.907-11 5.25-22.406 18.652-45.87 38.907-66.125 20.255-20.255 43.718-33.658 66.125-38.906 3.702-.87 7.4-1.513 11.06-1.907l-.436-.344-.406-.314-.344-.344c-5.853-5.852-14.346-8.918-24.813-8.812zm35.22 27.97c-4.95-.034-10.325.6-16.03 1.936-18.262 4.278-39.118 15.898-57.158 33.938-18.04 18.04-29.66 38.896-33.937 57.156-3.19 13.618-2.38 25.28 1.97 34.063l55.874 69.28c.46-3.185 1.058-6.378 1.81-9.593 6.32-26.98 22.565-55.408 47.126-79.97 24.56-24.56 52.96-40.773 79.938-47.092 2.055-.482 4.108-.89 6.156-1.25l-67.53-54.5h-.033c-5.132-2.575-11.256-3.924-18.187-3.97zm103.094 75.5c-.947.005-1.907.017-2.875.06-5.166.236-10.637 1.008-16.345 2.345-22.832 5.348-48.686 19.78-71.03 42.125-22.347 22.345-36.778 48.2-42.126 71.03-5.35 22.833-1.77 41.703 9.905 53.376 7.86 7.862 18.996 12.047 32.406 12.313-.68-.603-1.347-1.225-2-1.876-13.45-13.452-16.224-33.735-11.5-53.906 4.726-20.172 16.757-41.163 34.908-59.313 18.15-18.15 39.172-30.213 59.343-34.938 5.044-1.18 10.086-1.898 15.033-2.093 14.84-.586 28.754 3.505 38.843 13.594.673.672 1.318 1.356 1.938 2.062-.245-13.438-4.44-24.595-12.313-32.47-8.207-8.207-19.98-12.4-34.186-12.31zm8.28 47.717c-.65.005-1.3.032-1.968.063-3.564.167-7.37.687-11.375 1.625-16.024 3.754-34.44 14.003-50.374 29.938-7.822 7.822-14.263 16.238-19.25 24.687 1.697-2.026 3.503-4.003 5.438-5.938 17.012-17.01 38.125-24.96 53.22-21.5-5.877 2.765-11.803 6.865-17.158 12.22-16.19 16.19-21.17 37.454-11.125 47.5 7.735 7.733 22.152 6.587 35.75-1.75-3.07 4.568-6.748 9.03-10.967 13.25-18.512 18.51-41.876 26.32-57.063 20.343 7.814 6.11 19.617 7.906 34.156 4.5 16.025-3.754 34.44-14.003 50.375-29.938 15.936-15.934 26.185-34.35 29.94-50.375 3.752-16.024 1.195-28.71-6.5-36.406-5.413-5.41-13.32-8.293-23.095-8.22z" fill="#fff" fill-opacity="1"></path></g></svg>