<svg xmlns="http://www.w3.org/2000/svg" viewBox="0 0 512 512" style="height: 512px; width: 512px;"><path d="M0 0h512v512H0z" fill="url(#pattern)" fill-opacity="1"></path><svg><defs><filter id="b" x="-.024" width="1.048" y="-.024" height="1.048" color-interpolation-filters="sRGB"><feGaussianBlur stdDeviation="4.823"></feGaussianBlur></filter><filter id="a" x="-.012" width="1.024" y="-.012" height="1.024" color-interpolation-filters="sRGB"><feGaussianBlur stdDeviation="2.55"></feGaussianBlur></filter><filter id="c" x="-.112" width="1.225" y="-.077" height="1.153" color-interpolation-filters="sRGB"><feGaussianBlur stdDeviation="15.63"></feGaussianBlur></filter><filter id="e" x="-.237" width="1.475" y="-.249" height="1.497" color-interpolation-filters="sRGB"><feGaussianBlur stdDeviation="18.7"></feGaussianBlur></filter><filter id="d" x="-.213" width="1.426" y="-.151" height="1.303" color-interpolation-filters="sRGB"><feGaussianBlur stdDeviation="18.7"></feGaussianBlur></filter></defs><path d="M196.6 1.207c-2.5 11.323-4.8 22.703-10.2 33.383-7-10.68-12.6-20.91-16.7-31.988L2.494 4.338C13 104.9 10.86 175.3 1.979 278.3L15.4 295.5l-9.494 6.3L2.6 462.7l1.019 45.9 112.681 3.1c3.6-16.1 6.5-32.5 13.2-47.3 4.5 14.4 5.7 29.4 7 44.4l160 .3c.8-6.1.7-8.1 2.3-14.4 5.1 4.5 7.8 9.5 10.6 14.5.8-10.1 3.9-19.8 7-29.5 4.8 9.2 6.7 19.4 8.8 29.5l185.2.4-4.6-78.2-21.4-8.2 21.3-4.9 5.8-395.47c-7-6.73-13.3-13.744-18-21.465l-15.1.114-2.1 20.321-1.4 47.23.8 84.87-8.6-97.14c9.3-16.86 2.2-39.69 5.7-55.239-92.1 1.696-184.1.685-276.2-.314z" overflow="visible" color="#000" fill="#ebc893" fill-rule="evenodd" stroke="#e0aa58" enable-background="accumulate"></path><path d="M196.6 1.203c-2.5 11.327-4.8 22.707-10.2 33.387-7-10.68-12.6-20.91-16.7-31.99L2.494 4.336C13 104.9 10.86 175.3 1.979 278.3L15.4 295.5l-9.494 6.3L2.6 462.7l1.019 45.9 112.681 3.1c.5-2.1-7.9-2.3-7.4-4.5L5.244 504.5l-.914-47.3 4.63-153.7 12.42-9-13.093-16.8C16.95 177.3 16.36 104 6.113 5.992l162.687.164c4 10.804 10.3 24.254 17.1 34.664 5.3-10.41 9.5-25.97 12-37.02 89.8.974 173.8 3.521 263.6 1.867 4.6 1.226 10.6.431 11.3-4.149-92.1 1.696-184.1.684-276.2-.315zm296.9.158l-15.1.116-.6 6.277 13.5-2.557c4.6 7.533 9.7 12.383 16.6 18.943l-4.6 389.06-19.9 9.9 4.1-.6 18.2-4.2 5.8-395.47c-7-6.73-13.3-13.748-18-21.469zm9.6 435.739l3.5 69.7-177.7.1c.4 2.1-4.1.2-3.7 2.3l185.2.4-4.6-78.2zm-370 25.1c-1 2.2-2.9.4-3.7 2.6 4.2 14 5.8 29.5 7.1 44l158 .3c1.9-5 .8-9.7 4.3-14.4 5.1 4.5 7.8 9.5 10.6 14.5.8-10.1 3.9-19.8 7-29.5 1.8 3.4 3.2 7 4.3 10.6-1.4-5.6-2.4-8.3-5.1-13.4-3 9.4-6.7 16.2-7.5 26-2.7-4.9-5.4-9.7-10.4-14.1-3.4 4.6-6.2 9.1-8 14l-147.6 3.4c-3.4-14.6-7.1-30.3-9-44z" overflow="visible" color="#000" opacity=".527" fill="#c87137" fill-rule="evenodd" filter="url(#a)" enable-background="accumulate"></path><path d="M200.1 16.1c-2.3 10.67-10.5 21.38-15.6 31.44-6.6-10.06-13.9-19.69-17.7-30.12L17.34 19.05C24.61 113.6 7.605 179.3 16.85 277l18.26 20.1L10.34 309l7.1 141.6.96 43.3 90.2 3.4c3.4-15.2 15-35.6 21.3-49.6 4.3 13.6 15.4 36.7 16.6 50.9l45.1.8 13.8-18.7 14.4 22.2 68.7-8.6c1.8-4.7 4.5-9.1 7.8-13.5 4.8 4.2 7.4 8.9 10 13.6.8-9.5 7.7-19.6 10.6-28.7 4.5 8.6 19.9 28.9 33.1 33.9l114.6 5.6 22.3-14.7 19.4 14.7-14.5-67.6-34.6-14.2 37.5-15.1 2.1-96.9-14.5-21.9 15.2-13.4 5.1-239.63c-5.2-21.09-11.8-24.89-16.9-20.22l-4.2 2.11 2 19.14.7 44.47-7.1 124.23-18.3-137.78c8.8-15.88-3.9-35.38-.6-50.02-67.1 1.24-140.4-13.332-202.8-3.28-14 2.25-23.7 21.31-36.9 24.48-4.3 1.03-13.9-23.45-18.4-23.5z" overflow="visible" enable-background="accumulate" filter="url(#b)" fill-rule="evenodd" fill="#f6e7d0" color="#000"></path><path d="M354 27.39l-70.3 96.91 46.4 97.6-56.2 43.6 33 74.4-30.2 63.2 69.8 48.8 31.6 29.5 31.6-13.3L365.9 335l55.5-36.5 2.1-146.1-56.9-101.83zM116.6 55.48L89.9 123.6s33.7 65.3 35.8 68.8c2.1 3.6-7 118-7 118l42.8 73.8s9.9-82.9 7.1-83.6c-2.8-.7-29.5-42.1-29.5-42.1l23.8-84.3-36.5-37.2z" color="#000" overflow="visible" fill="#f2dbb9" fill-rule="evenodd" filter="url(#c)" enable-background="accumulate"></path><path d="M39.33 172.1l-5.62 108.1L74.45 328 42.84 464.9l96.96-39.3 30.2 42.9 74.4-38.7-80.8-169.9-60.4-16.9z" color="#000" overflow="visible" fill="#eed3a4" fill-rule="evenodd" enable-background="accumulate" filter="url(#d)"></path><path d="M266.9 66.72L324.5 191 434 221.2l21.8-111.6-41.4-68.86z" color="#000" overflow="visible" fill="#eed3a4" fill-rule="evenodd" enable-background="accumulate" filter="url(#e)"></path></svg><g class="" transform="translate(0,0)" style=""><path d="M161.9 17.31c-32.7 0-63.75 8.22-88.96 24.19-28.82 18.25-49.85 47.08-55.85 84.2-5.99 37 2.83 81.8 31.25 133 19.84 35.6 44.25 63.8 59.66 93.5 12.4 25.7 18.4 46.7 15.6 75.2-14.7 2.9-25.73 15.7-25.73 31.2 0 17.5 14.23 31.8 31.73 31.8 17.6 0 31.8-14.3 31.8-31.8 0-13.2-8-24.4-19.4-29.3 1-10.2 1-19.8.1-29.1 9.2-10.8 19.9-16.3 33.2-18.1 14.7-2.1 32.7.7 53.3 8.1 5.1 9.7 9.7 20 13.7 31.1-9.2 5.4-15.3 15.4-15.3 26.8 0 17.1 13.9 31 31 31 17.2 0 31.1-13.9 31.1-31 0-16.3-12.5-29.7-28.5-31-4-11.6-8.7-22.4-13.9-32.6 10.2-9.9 27.5-16.7 47.6-20.6 22-4.3 46.7-5.4 67.4-6 7 6.4 13.9 13.2 20.6 20.3-.5 2.2-.8 4.6-.8 7 0 16.4 13.3 29.6 29.6 29.6 16.4 0 29.6-13.2 29.6-29.6 0-16.3-13.2-29.6-29.6-29.6-6.9 0-13.3 2.4-18.3 6.4-6.5-6.7-13.1-13-19.8-19.1-1-49.1 13.3-87.6 37.8-119.2 8.9-2.2 18-5.4 27.4-9.7 5.8 5.7 13.7 9.2 22.4 9.2 17.5 0 31.7-14.2 31.7-31.8 0-17.5-14.2-31.7-31.7-31.7s-31.8 14.2-31.8 31.7c0 2.1.2 4.2.6 6.2-7.8 3.5-15.2 6.1-22.4 8-15.5-19.9-16.9-35.5-12.6-52.8 4.6-18.4 17.3-38.6 29.9-61.9 6.3-4.02 12-8.88 16.7-14.62 5.5 4.16 12.3 6.62 19.7 6.62 17.9 0 32.5-14.53 32.5-32.47 0-17.93-14.6-32.46-32.5-32.46s-32.5 14.53-32.5 32.46c0 3.4.6 6.68 1.5 9.75-11.2 16.83-32.7 26.23-58.8 26.69-26.6.47-57.1-8.56-82.7-27.25-40-23.91-86.1-41.78-126.3-42.31zm46.8 25c18.6 4.78 37.1 12.46 54.7 23.22l.1 14.75c-17.7-13.23-37.1-27.25-54.3-36.15zm-61.8 3.22l4.6 15.78c-11.2-5.2-22.9-9.35-35.3-12.09 10.7-2.2 20.7-4.03 30.7-3.69zm20.2 2.72c9.1 2.07 18.4 5.46 26.2 9.03l9.8 36.94c-9.2-7.27-18.6-14.13-28.5-20.28zm-62.8 17.78c18.5 3.03 35.5 9.68 51.6 18.72l-10.8 18.65c-14-13.33-28.2-26.75-40.8-37.37zm111.5 3.34c10.8 6.65 21.4 14.27 31.9 22.28 5.3 4.12 10.6 8.34 15.9 12.55l.3 44.1c-11.7-10.6-23.6-21.9-35.9-32.9zm66.4 8.85c12.6 8.53 26.2 15.08 39.9 19.62l.7 28.26c-13-8.7-26.5-19.6-40.5-30.88zm-192.29.18c15.59 13.03 30.59 27.3 45.39 42.1l-13.9 23.9c-13.6-22.6-24.73-45.32-31.49-66zm81.89 16.22c13.7 9.28 26.8 19.98 39.7 31.38-2 6.1-12.2 21.9-16.1 28.1-12.2-12.2-24.3-24.7-36.6-37zm224.7 7.88c-8.2 14.6-15.8 28.9-19.9 44.2-11.2.2-22.8-3.2-34.9-9.3l-.8-34.6c19.1 3.5 38 3.8 55.6-.3zm-342.91 8c.3 21.8 3.72 41.3 9.41 58.9L46.75 166c.35-20.5 2.82-39.5 6.84-55.5zm32.38 8.7c6.46 13.6 13.77 26.2 21.73 37.7l-13.55 5.8c-4.74-15.3-7.78-30.3-8.18-43.5zm196.43.1c14.3 10.9 26.8 21 40.9 29.2l1 45.7c-14.1-7.6-27.9-17.8-41.6-29.4zm-133.5 15c11.9 12.1 23.8 24.5 36 36.6l-16.4 26.4c-12.6-11.1-24.3-23.1-35-36.5zm77.7 5.2c13 11.7 25 23.1 36.4 33.1l-17.1 28.6c-12.7-10.6-24.9-21.9-36.8-33.6zm115.6 18.7c10.3 4.3 20.9 6.9 31.7 7.2-.2 14.1 3.6 28.7 12.9 43.6-15.9.6-30-1.3-43.6-6.2zm-223 14.1c9.9 12.5 20.6 23.8 32 34.3l-22.7 8c-10.7-11.8-19.8-22.8-26.5-35zm79.4 12c12 11.6 24.3 22.9 37.3 33.5l-12.4 20.7c-14-9.4-28.9-20-40.5-29.2zm78.9.5c14 11.3 28.5 21.4 44 29l-16.3 28.5c-15.8-8.6-30.6-18.5-44.6-29.3 5.6-9.4 11.3-18.8 16.9-28.2zm-228.53.8l22.09 4.6c5.33 11.7 11.66 22.6 18.72 32.9l-27.53-1.9c-6.04-10.7-10.69-22.4-13.28-35.6zm118.53 35.1c11.4 9.4 23.3 18.1 35.5 26.4l-24.3 8.2c-12.1-8.3-24.5-17.5-34.8-26.3zm171.3.4c15 5.1 32.5 7.2 46.6 6.6-7.6 12.1-14.1 25.1-19 39.1-15.8-4.2-30.6-9.6-44.5-16 5.6-9.9 11.3-19.8 16.9-29.7zm-88.1 8.4c14.2 10.7 29.1 20.6 45.1 29.3L285 277.7c-15.5-9.9-30.9-19.4-45.8-29 3.8-6.4 7.7-12.8 11.5-19.2zm-127 6.6c10.8 10.6 23 18.1 33 26.6l-6.7 2.2c-9.3-9.5-19.5-20.4-26.3-28.8zm-48.2 4.7c9.67.6 19.32 1.5 29 2 7.6 8.9 15.6 17.9 22.5 25.2-7.3.7-17.4.9-25.6 1.2-9.27-9.7-18.85-19.4-25.9-28.4zm147.1 19.5c15.1 9.7 30.4 19.2 45.7 29l-24 10.8c-15.1-11.3-32.2-22.7-46-31.7zm89.9 6.9c15.1 7 31.2 12.9 48.4 17.5-3.3 13.4-5.4 27.5-6.1 42.5-17.7-14.5-35.9-27.3-54.1-39.3 3.9-6.9 7.9-13.8 11.8-20.7zm-136.6 8.7c17.1 11.6 34 22.3 48.8 33l-22.9 10.3c-12.1-14-24.8-26.9-37.2-39.5zm-31.2 10.4c11.6 11.7 23.2 23.3 34.4 35.6h-24.8c-10.7-12.6-22.4-23.8-33.9-34.7 8.1-.1 16.2-.9 24.3-.9zm-50.86 1.9c11.76 11.3 23.66 22.2 34.76 33.7H112c-7.2-11.3-14.92-22.4-22.66-33.6 1.5 0 3.01-.1 4.5-.1zm193.26 13.2c18.2 12 36.2 24.6 53.7 38.6-19.8 1.3-37.6 3.1-54.7 6.5-6.1-12.3-15.1-23.1-25.9-33 8.9-4.1 17.9-8.1 26.9-12.1zm-45.7 20.5c11.3 9.5 20.3 19.3 26.2 29.7-11.3 3.8-21.7 9-30.1 16.2-7.2-12.1-15.1-23.2-23.3-33.7zM123 340.6h22.2c6.3 7.9 12.1 16.2 17 25.2-8.7 2.6-16.8 6.7-24.1 12.5-4.1-14-9-26.4-15.1-37.7zm45.7 0h26.6c6.8 8.3 13.3 16.9 19.4 26-11.6-2.8-22.6-4.2-33.1-3.8-4.1-7.9-8.6-15.9-12.9-22.2z" fill="#fff" fill-opacity="1"></path></g></svg>