<svg xmlns="http://www.w3.org/2000/svg" viewBox="0 0 512 512" style="height: 512px; width: 512px;"><path d="M0 0h512v512H0z" fill="url(#pattern)" fill-opacity="1"></path><svg><defs><filter id="b" x="-.024" width="1.048" y="-.024" height="1.048" color-interpolation-filters="sRGB"><feGaussianBlur stdDeviation="4.823"></feGaussianBlur></filter><filter id="a" x="-.012" width="1.024" y="-.012" height="1.024" color-interpolation-filters="sRGB"><feGaussianBlur stdDeviation="2.55"></feGaussianBlur></filter><filter id="c" x="-.112" width="1.225" y="-.077" height="1.153" color-interpolation-filters="sRGB"><feGaussianBlur stdDeviation="15.63"></feGaussianBlur></filter><filter id="e" x="-.237" width="1.475" y="-.249" height="1.497" color-interpolation-filters="sRGB"><feGaussianBlur stdDeviation="18.7"></feGaussianBlur></filter><filter id="d" x="-.213" width="1.426" y="-.151" height="1.303" color-interpolation-filters="sRGB"><feGaussianBlur stdDeviation="18.7"></feGaussianBlur></filter></defs><path d="M196.6 1.207c-2.5 11.323-4.8 22.703-10.2 33.383-7-10.68-12.6-20.91-16.7-31.988L2.494 4.338C13 104.9 10.86 175.3 1.979 278.3L15.4 295.5l-9.494 6.3L2.6 462.7l1.019 45.9 112.681 3.1c3.6-16.1 6.5-32.5 13.2-47.3 4.5 14.4 5.7 29.4 7 44.4l160 .3c.8-6.1.7-8.1 2.3-14.4 5.1 4.5 7.8 9.5 10.6 14.5.8-10.1 3.9-19.8 7-29.5 4.8 9.2 6.7 19.4 8.8 29.5l185.2.4-4.6-78.2-21.4-8.2 21.3-4.9 5.8-395.47c-7-6.73-13.3-13.744-18-21.465l-15.1.114-2.1 20.321-1.4 47.23.8 84.87-8.6-97.14c9.3-16.86 2.2-39.69 5.7-55.239-92.1 1.696-184.1.685-276.2-.314z" overflow="visible" color="#000" fill="#ebc893" fill-rule="evenodd" stroke="#e0aa58" enable-background="accumulate"></path><path d="M196.6 1.203c-2.5 11.327-4.8 22.707-10.2 33.387-7-10.68-12.6-20.91-16.7-31.99L2.494 4.336C13 104.9 10.86 175.3 1.979 278.3L15.4 295.5l-9.494 6.3L2.6 462.7l1.019 45.9 112.681 3.1c.5-2.1-7.9-2.3-7.4-4.5L5.244 504.5l-.914-47.3 4.63-153.7 12.42-9-13.093-16.8C16.95 177.3 16.36 104 6.113 5.992l162.687.164c4 10.804 10.3 24.254 17.1 34.664 5.3-10.41 9.5-25.97 12-37.02 89.8.974 173.8 3.521 263.6 1.867 4.6 1.226 10.6.431 11.3-4.149-92.1 1.696-184.1.684-276.2-.315zm296.9.158l-15.1.116-.6 6.277 13.5-2.557c4.6 7.533 9.7 12.383 16.6 18.943l-4.6 389.06-19.9 9.9 4.1-.6 18.2-4.2 5.8-395.47c-7-6.73-13.3-13.748-18-21.469zm9.6 435.739l3.5 69.7-177.7.1c.4 2.1-4.1.2-3.7 2.3l185.2.4-4.6-78.2zm-370 25.1c-1 2.2-2.9.4-3.7 2.6 4.2 14 5.8 29.5 7.1 44l158 .3c1.9-5 .8-9.7 4.3-14.4 5.1 4.5 7.8 9.5 10.6 14.5.8-10.1 3.9-19.8 7-29.5 1.8 3.4 3.2 7 4.3 10.6-1.4-5.6-2.4-8.3-5.1-13.4-3 9.4-6.7 16.2-7.5 26-2.7-4.9-5.4-9.7-10.4-14.1-3.4 4.6-6.2 9.1-8 14l-147.6 3.4c-3.4-14.6-7.1-30.3-9-44z" overflow="visible" color="#000" opacity=".527" fill="#c87137" fill-rule="evenodd" filter="url(#a)" enable-background="accumulate"></path><path d="M200.1 16.1c-2.3 10.67-10.5 21.38-15.6 31.44-6.6-10.06-13.9-19.69-17.7-30.12L17.34 19.05C24.61 113.6 7.605 179.3 16.85 277l18.26 20.1L10.34 309l7.1 141.6.96 43.3 90.2 3.4c3.4-15.2 15-35.6 21.3-49.6 4.3 13.6 15.4 36.7 16.6 50.9l45.1.8 13.8-18.7 14.4 22.2 68.7-8.6c1.8-4.7 4.5-9.1 7.8-13.5 4.8 4.2 7.4 8.9 10 13.6.8-9.5 7.7-19.6 10.6-28.7 4.5 8.6 19.9 28.9 33.1 33.9l114.6 5.6 22.3-14.7 19.4 14.7-14.5-67.6-34.6-14.2 37.5-15.1 2.1-96.9-14.5-21.9 15.2-13.4 5.1-239.63c-5.2-21.09-11.8-24.89-16.9-20.22l-4.2 2.11 2 19.14.7 44.47-7.1 124.23-18.3-137.78c8.8-15.88-3.9-35.38-.6-50.02-67.1 1.24-140.4-13.332-202.8-3.28-14 2.25-23.7 21.31-36.9 24.48-4.3 1.03-13.9-23.45-18.4-23.5z" overflow="visible" enable-background="accumulate" filter="url(#b)" fill-rule="evenodd" fill="#f6e7d0" color="#000"></path><path d="M354 27.39l-70.3 96.91 46.4 97.6-56.2 43.6 33 74.4-30.2 63.2 69.8 48.8 31.6 29.5 31.6-13.3L365.9 335l55.5-36.5 2.1-146.1-56.9-101.83zM116.6 55.48L89.9 123.6s33.7 65.3 35.8 68.8c2.1 3.6-7 118-7 118l42.8 73.8s9.9-82.9 7.1-83.6c-2.8-.7-29.5-42.1-29.5-42.1l23.8-84.3-36.5-37.2z" color="#000" overflow="visible" fill="#f2dbb9" fill-rule="evenodd" filter="url(#c)" enable-background="accumulate"></path><path d="M39.33 172.1l-5.62 108.1L74.45 328 42.84 464.9l96.96-39.3 30.2 42.9 74.4-38.7-80.8-169.9-60.4-16.9z" color="#000" overflow="visible" fill="#eed3a4" fill-rule="evenodd" enable-background="accumulate" filter="url(#d)"></path><path d="M266.9 66.72L324.5 191 434 221.2l21.8-111.6-41.4-68.86z" color="#000" overflow="visible" fill="#eed3a4" fill-rule="evenodd" enable-background="accumulate" filter="url(#e)"></path></svg><g class="" transform="translate(0,0)" style=""><path d="M256 31.627c-14.76 0-34.807 3.467-51.89 10.71-17.08 7.245-30.695 18.046-35.674 31.43-.776 2.084-1.43 4.142-1.995 6.18-8.754 22.627 7.52 79.885 25.996 117.248-7.3-10.69-14.537-21.067-21.094-31.367-16.38-25.727-28.646-52.362-24.174-81.545-5.41-3.06-11.58-4.656-19.168-4.656-13 0-27.05 6.777-37.637 17.363C79.777 107.576 73 121.627 73 134.627c0 6.942 2.437 14.127 6.793 21.46 9.537 21.677 37.573 54.524 68.11 83.972-14.153-10.152-28.97-20.59-42.516-31.394-26.862-21.423-50.256-44.75-50.38-73.807-3.858 3.766-7.26 8.668-10.146 14.667-5.568 11.584-8.936 26.593-9.878 41.66-.94 15.068.532 30.22 3.914 41.946 3.383 11.724 8.886 19.32 13.13 21.443a9 9 0 0 1 .966.563c36.323 24.214 84.286 29.334 135.572 35.38-3.577-8.602-5.564-18.02-5.564-27.893 0-40.21 32.79-73 73-73s73 32.79 73 73c0 9.872-1.987 19.29-5.564 27.893 51.286-6.046 99.25-11.166 135.572-35.38a9 9 0 0 1 .967-.564c4.243-2.122 9.746-9.72 13.13-21.443 3.38-11.725 4.854-26.878 3.913-41.946-.942-15.067-4.31-30.076-9.88-41.66-2.884-6-6.287-10.9-10.144-14.668-.125 29.057-23.52 52.383-50.38 73.806-13.547 10.803-28.364 21.242-42.518 31.393 30.538-29.45 58.574-62.296 68.11-83.974 4.357-7.332 6.794-14.517 6.794-21.46 0-13-6.777-27.05-17.363-37.636C411.05 86.404 397 79.627 384 79.627c-7.588 0-13.757 1.595-19.168 4.656 4.472 29.183-7.794 55.818-24.174 81.545-6.557 10.3-13.793 20.678-21.094 31.367 18.477-37.363 34.75-94.62 25.995-117.248-.565-2.038-1.22-4.096-1.996-6.18-4.973-13.37-18.638-24.18-35.752-31.427C290.7 35.093 270.644 31.627 256 31.627zm1.07 177.3a55.75 55.75 0 0 0-55.752 55.75 55.75 55.75 0 0 0 26.368 47.3A62.673 62.986 0 0 1 224 290.893a62.673 62.986 0 0 1 62.674-62.985 62.673 62.986 0 0 1 13.562 1.54 55.75 55.75 0 0 0-43.166-20.522zm-62.174 93.536c-53.804 4.54-104.937 7.798-143.066 25.732a9 9 0 0 1-.836.342c-4.893 1.726-9.325 6.413-12.414 13.97-.016.038-.03.08-.047.12H39c0 4.625 3.054 11.025 8.984 18.324 5.458 6.718 12.94 13.94 20.438 21.386.994-1.02 2.02-2.023 3.08-3.006 9.385-8.71 21.622-16.514 35.082-24.088 18.298-10.296 38.886-20.127 57.06-29.62-35.542 22.593-71.37 50.668-83.212 68.618 6.93 5.644 16.974 12.653 27.804 18.453 12.78 6.844 27.035 12.523 38.885 15.227.523-2.765 1.268-5.477 2.24-8.106 4.566-12.322 13.075-23.213 22.892-34.09 8.025-8.894 16.996-17.84 25.826-27.097h.06c-15.392 19.018-30.88 50.23-33.695 72.135 29.607 13.775 75.866 14.865 91.557 14.865 15.924 0 62.742-.66 91.56-14.854-2.81-21.905-18.303-53.125-33.697-72.146h.06c8.83 9.256 17.8 18.203 25.825 27.096 9.817 10.878 18.326 21.77 22.89 34.09.968 2.612 1.71 5.306 2.23 8.052 11.302-2.71 24.53-8.31 36.76-15.105 11.067-6.148 21.47-13.233 29.37-19.367-12.39-17.978-47.654-45.53-82.643-67.772 18.175 9.495 38.763 19.326 57.06 29.622 13.46 7.574 25.698 15.378 35.083 24.088 1.06.983 2.086 1.985 3.08 3.006 7.497-7.446 14.98-14.668 20.438-21.385 5.93-7.298 8.984-13.698 8.984-18.323h.467c-.016-.04-.03-.082-.047-.12-3.09-7.557-7.52-12.244-12.414-13.97a9 9 0 0 1-.836-.342c-38.13-17.934-89.262-21.193-143.067-25.732-3.268 4.993-7.138 9.556-11.494 13.603 14.566 4.272 27.39 10.834 36.753 20.198l-12.726 12.726C316.82 336.172 286.5 327.627 256 327.627s-60.82 8.545-73.637 21.363l-12.726-12.726c9.36-9.362 22.182-15.924 36.744-20.196-4.353-4.046-8.216-8.614-11.484-13.605zm281.663 71.535c-6.796 8.062-14.844 15.64-22.197 22.992-.078.08-.166.162-.246.24 1.524 3.438 2.52 7.052 2.8 10.868 11.18-7.078 17.57-19.915 19.642-34.1zM35.44 374c2.072 14.185 8.464 27.02 19.642 34.098.277-3.77 1.252-7.343 2.744-10.743-.174-.234-.364-.468-.53-.703C50.032 389.405 42.13 381.94 35.44 374zm403.542 36.033c-8.17 6.124-17.99 12.56-28.61 18.46-12.728 7.072-26.367 13.33-39.774 16.616 3.988.905 8.403 1.4 13.402 1.4 13.883 0 28.352-5.085 38.812-12.465 10.46-7.38 16.188-16.654 16.188-23.69 0-.105-.015-.216-.018-.322zm-365.87 1.973c.8 6.792 6.413 15.222 16.075 22.04 10.46 7.38 24.93 12.464 38.813 12.464 4.914 0 9.264-.48 13.2-1.356-13.832-3.255-28.2-9.49-41.462-16.593-9.994-5.352-19.092-10.883-26.627-16.554zm95.005 39.564c4.277 7.724 17.898 15.987 35.06 21.12 17.356 5.194 37.666 7.683 52.823 7.683 15.043 0 35.36-2.49 52.746-7.684 17.012-5.083 30.57-13.24 34.99-20.876-33.462 12.25-73.52 11.813-87.736 11.813-14.454 0-54.23-.08-87.883-12.057z" fill="#fff" fill-opacity="1"></path></g></svg>