<svg xmlns="http://www.w3.org/2000/svg" viewBox="0 0 512 512" style="height: 512px; width: 512px;"><path d="M0 0h512v512H0z" fill="url(#pattern)" fill-opacity="1"></path><svg><defs><filter id="b" x="-.024" width="1.048" y="-.024" height="1.048" color-interpolation-filters="sRGB"><feGaussianBlur stdDeviation="4.823"></feGaussianBlur></filter><filter id="a" x="-.012" width="1.024" y="-.012" height="1.024" color-interpolation-filters="sRGB"><feGaussianBlur stdDeviation="2.55"></feGaussianBlur></filter><filter id="c" x="-.112" width="1.225" y="-.077" height="1.153" color-interpolation-filters="sRGB"><feGaussianBlur stdDeviation="15.63"></feGaussianBlur></filter><filter id="e" x="-.237" width="1.475" y="-.249" height="1.497" color-interpolation-filters="sRGB"><feGaussianBlur stdDeviation="18.7"></feGaussianBlur></filter><filter id="d" x="-.213" width="1.426" y="-.151" height="1.303" color-interpolation-filters="sRGB"><feGaussianBlur stdDeviation="18.7"></feGaussianBlur></filter></defs><path d="M196.6 1.207c-2.5 11.323-4.8 22.703-10.2 33.383-7-10.68-12.6-20.91-16.7-31.988L2.494 4.338C13 104.9 10.86 175.3 1.979 278.3L15.4 295.5l-9.494 6.3L2.6 462.7l1.019 45.9 112.681 3.1c3.6-16.1 6.5-32.5 13.2-47.3 4.5 14.4 5.7 29.4 7 44.4l160 .3c.8-6.1.7-8.1 2.3-14.4 5.1 4.5 7.8 9.5 10.6 14.5.8-10.1 3.9-19.8 7-29.5 4.8 9.2 6.7 19.4 8.8 29.5l185.2.4-4.6-78.2-21.4-8.2 21.3-4.9 5.8-395.47c-7-6.73-13.3-13.744-18-21.465l-15.1.114-2.1 20.321-1.4 47.23.8 84.87-8.6-97.14c9.3-16.86 2.2-39.69 5.7-55.239-92.1 1.696-184.1.685-276.2-.314z" overflow="visible" color="#000" fill="#ebc893" fill-rule="evenodd" stroke="#e0aa58" enable-background="accumulate"></path><path d="M196.6 1.203c-2.5 11.327-4.8 22.707-10.2 33.387-7-10.68-12.6-20.91-16.7-31.99L2.494 4.336C13 104.9 10.86 175.3 1.979 278.3L15.4 295.5l-9.494 6.3L2.6 462.7l1.019 45.9 112.681 3.1c.5-2.1-7.9-2.3-7.4-4.5L5.244 504.5l-.914-47.3 4.63-153.7 12.42-9-13.093-16.8C16.95 177.3 16.36 104 6.113 5.992l162.687.164c4 10.804 10.3 24.254 17.1 34.664 5.3-10.41 9.5-25.97 12-37.02 89.8.974 173.8 3.521 263.6 1.867 4.6 1.226 10.6.431 11.3-4.149-92.1 1.696-184.1.684-276.2-.315zm296.9.158l-15.1.116-.6 6.277 13.5-2.557c4.6 7.533 9.7 12.383 16.6 18.943l-4.6 389.06-19.9 9.9 4.1-.6 18.2-4.2 5.8-395.47c-7-6.73-13.3-13.748-18-21.469zm9.6 435.739l3.5 69.7-177.7.1c.4 2.1-4.1.2-3.7 2.3l185.2.4-4.6-78.2zm-370 25.1c-1 2.2-2.9.4-3.7 2.6 4.2 14 5.8 29.5 7.1 44l158 .3c1.9-5 .8-9.7 4.3-14.4 5.1 4.5 7.8 9.5 10.6 14.5.8-10.1 3.9-19.8 7-29.5 1.8 3.4 3.2 7 4.3 10.6-1.4-5.6-2.4-8.3-5.1-13.4-3 9.4-6.7 16.2-7.5 26-2.7-4.9-5.4-9.7-10.4-14.1-3.4 4.6-6.2 9.1-8 14l-147.6 3.4c-3.4-14.6-7.1-30.3-9-44z" overflow="visible" color="#000" opacity=".527" fill="#c87137" fill-rule="evenodd" filter="url(#a)" enable-background="accumulate"></path><path d="M200.1 16.1c-2.3 10.67-10.5 21.38-15.6 31.44-6.6-10.06-13.9-19.69-17.7-30.12L17.34 19.05C24.61 113.6 7.605 179.3 16.85 277l18.26 20.1L10.34 309l7.1 141.6.96 43.3 90.2 3.4c3.4-15.2 15-35.6 21.3-49.6 4.3 13.6 15.4 36.7 16.6 50.9l45.1.8 13.8-18.7 14.4 22.2 68.7-8.6c1.8-4.7 4.5-9.1 7.8-13.5 4.8 4.2 7.4 8.9 10 13.6.8-9.5 7.7-19.6 10.6-28.7 4.5 8.6 19.9 28.9 33.1 33.9l114.6 5.6 22.3-14.7 19.4 14.7-14.5-67.6-34.6-14.2 37.5-15.1 2.1-96.9-14.5-21.9 15.2-13.4 5.1-239.63c-5.2-21.09-11.8-24.89-16.9-20.22l-4.2 2.11 2 19.14.7 44.47-7.1 124.23-18.3-137.78c8.8-15.88-3.9-35.38-.6-50.02-67.1 1.24-140.4-13.332-202.8-3.28-14 2.25-23.7 21.31-36.9 24.48-4.3 1.03-13.9-23.45-18.4-23.5z" overflow="visible" enable-background="accumulate" filter="url(#b)" fill-rule="evenodd" fill="#f6e7d0" color="#000"></path><path d="M354 27.39l-70.3 96.91 46.4 97.6-56.2 43.6 33 74.4-30.2 63.2 69.8 48.8 31.6 29.5 31.6-13.3L365.9 335l55.5-36.5 2.1-146.1-56.9-101.83zM116.6 55.48L89.9 123.6s33.7 65.3 35.8 68.8c2.1 3.6-7 118-7 118l42.8 73.8s9.9-82.9 7.1-83.6c-2.8-.7-29.5-42.1-29.5-42.1l23.8-84.3-36.5-37.2z" color="#000" overflow="visible" fill="#f2dbb9" fill-rule="evenodd" filter="url(#c)" enable-background="accumulate"></path><path d="M39.33 172.1l-5.62 108.1L74.45 328 42.84 464.9l96.96-39.3 30.2 42.9 74.4-38.7-80.8-169.9-60.4-16.9z" color="#000" overflow="visible" fill="#eed3a4" fill-rule="evenodd" enable-background="accumulate" filter="url(#d)"></path><path d="M266.9 66.72L324.5 191 434 221.2l21.8-111.6-41.4-68.86z" color="#000" overflow="visible" fill="#eed3a4" fill-rule="evenodd" enable-background="accumulate" filter="url(#e)"></path></svg><g class="" transform="translate(0,0)" style=""><path d="M256 15.99c-8.8 0-16 14.33-16 32 0 8.47 1.7 16.59 4.7 22.57-4.7.21-9 1.16-13.7 2.43v15.85c17.1-2.42 34.1-2.31 50 0V72.99c-4.5-1.35-9.4-2.11-13.7-2.43 3-5.98 4.7-14.1 4.7-22.57 0-17.67-7.2-32-16-32zM86.23 86.28c-6.25 6.25-1.19 21.42 11.3 33.92 6.07 6 12.97 10.6 19.37 12.7-3.2 3.5-5.6 7.2-8 11.4l11.3 11.2c9.9-13.4 21.9-25.4 35.3-35.3l-11.2-11.3c-4.2 2.2-8 5.2-11.4 8-2.1-6.4-6.7-13.3-12.7-19.3-8-6.21-24.55-20.4-33.97-11.32zm305.57 11.3c-6 6.02-10.6 12.92-12.7 19.32-3.5-3.2-7.2-5.6-11.4-8l-11.2 11.3c13.4 9.9 25.4 21.9 35.3 35.3l11.3-11.2c-2.2-4.2-5.2-8-8-11.4 6.3-2.2 13.2-6.7 19.2-12.7 12.5-12.5 17.6-27.69 11.3-33.93-9.9-7.87-28 5.62-33.8 11.31zm-142.3 7.52c-36.8 1.6-70.2 16.3-95.6 39.6-3.3 3.1-6.6 6.3-9.2 9.2-23.3 25.4-38 58.8-39.6 95.7 0 4.5-.2 9.1.1 13 1.5 36.8 16.2 70.2 39.5 95.6 3.1 3.2 6.4 6.5 9.2 9.2 25.4 23.2 58.8 37.9 95.6 39.5h.2c4.1.2 8.7 0 12.8 0 36.8-1.6 70.2-16.3 95.6-39.6 3.3-3.1 6.6-6.3 9.2-9.2 23.3-25.4 38-58.8 39.6-95.6v-.2c.2-4.2 0-8.7 0-12.8-1.6-36.8-16.3-70.2-39.6-95.6-3.1-3.3-6.3-6.6-9.2-9.2-25.4-23.3-58.8-38-95.6-39.6-4.5-.2-9.1 0-13 0zm6.5 10.7c4.4 0 8 3.6 8 8s-3.6 8-8 8-8-3.6-8-8 3.6-8 8-8zm6.9 28.4c25.7 1.6 49.1 11.8 67.3 27.9 3.4 3.1 6.7 6.3 9.7 9.7 16.1 18.2 26.3 41.6 27.9 67.4.4 4.6 0 9.2 0 13.7-1.6 25.7-11.8 49.1-27.9 67.3-3.1 3.4-6.3 6.7-9.7 9.7-18.2 16.1-41.6 26.3-67.4 27.9-4.6.1-9.2.4-13.7 0-25.7-1.6-49.1-11.8-67.2-27.9h-.1c-3.4-3-6.6-6.3-9.6-9.7-16.1-18.1-26.4-41.5-28-67.3-.1-4.6-.4-9.1 0-13.6.5-25.8 13.3-50.5 27.9-67.5 3.1-3.4 6.3-6.7 9.7-9.7 18.2-16.1 41.6-26.3 67.4-27.9 4.6-.4 9.2 0 13.7 0zm-94.8 12.6c3.1 3.1 3.1 8.2 0 11.3-3.1 3.1-8.2 3.1-11.3 0-3.1-3.1-3.1-8.2 0-11.3 3.5-2.9 8.2-2.9 11.3 0zm187.1 0c3.1 3.1 3.1 8.2 0 11.3-3.1 3.1-8.2 3.1-11.3 0-3.1-3.1-3.1-8.2 0-11.3 3.5-2.9 8.2-2.9 11.3 0zM240 163.3v8.7c2.5 3.2 4.4 5.5 7.8 6.8-.7 12.4-1.6 25.1-2.8 37.7 7.4-1.9 15.2-2 22.1.1-1.2-12.7-2.2-25.4-2.9-37.9 7.9-2.1 7.8-8.6 7.8-15.4-11-1.7-21.8-1.6-32 0zm-38.3 15.8c-8.7 6.2-16.4 13.9-22.6 22.6l6.2 6.2c4 .5 7 .8 10.3-.7 8.3 9.3 16.6 18.9 24.7 28.7 3.7-6.5 9.1-11.9 15.7-15.6-9.9-8.1-19.5-16.4-28.8-24.7 1.8-3.1 1.3-6.7.7-10.3zm108.6 0l-6.2 6.2c-.7 4-.8 6.9.6 10.3-9.2 8.3-18.9 16.6-28.7 24.7 6.5 3.7 11.9 9.1 15.6 15.7 8.1-9.9 16.5-19.5 24.7-28.8 3.2 1.7 6.7 1.3 10.3.7l6.2-6.2c-6.2-8.7-13.8-16.4-22.5-22.6zM423.1 231c2.5 17.1 2.3 34.1 0 50H439c1.5-4.5 2-9.4 2.3-13.7 6 3 14.2 4.7 22.7 4.7 17.7 0 32-7.2 32-16s-14.3-16-32-16c-8.5 0-16.7 1.7-22.7 4.7-.1-4.7-1-9-2.3-13.7zm-350.07.1c-1.35 4.5-2.11 9.2-2.4 13.6-6.02-3-14.15-4.6-22.6-4.6-17.67 0-32 7.2-32 16s14.33 16 32 16c8.48 0 16.61-1.7 22.6-4.7.15 4.7 1.12 9 2.4 13.7h15.8c-2.38-17.1-2.5-34.1 0-50zM256 233c-12.9 0-23 10.2-23 23s10.1 23 23 23c12.8 0 23-10.2 23-23s-10.2-23-23-23zm84 7c-3.2 2.5-5.5 4.4-6.8 7.8-12.4-.7-25.1-1.6-37.7-2.8 1.9 7.5 1.9 15.2 0 22.1 12.6-1.2 25.2-2.2 37.7-2.9 1 3.5 3.8 5.7 6.8 7.8h8.7c1.7-11 1.6-21.8 0-32zm-176.7.1c-1.7 10.9-1.5 21.8 0 32h8.7c3.1-2.5 5.6-4.3 6.7-7.8 12.5.6 25.1 1.6 37.8 2.8-2-7.5-2-15.2-.1-22.1-12.6 1.2-25.3 2.1-37.7 2.8-.9-3.5-3.8-5.7-6.7-7.7zm224.9 7.9c4.4 0 8 3.6 8 8s-3.6 8-8 8-8-3.6-8-8 3.6-8 8-8zm-264.4.1c4.4 0 8 3.6 8 8s-3.6 8-8 8-8-3.6-8-8 3.6-8 8-8zm167.9 28c-3.7 6.5-9.1 11.9-15.7 15.6 9.9 8.1 19.5 16.4 28.8 24.7-1.8 3.1-1.3 6.7-.7 10.3l6.2 6.2c8.7-6.2 16.4-13.9 22.6-22.6l-6.2-6.2c-4-.5-7-.8-10.3.7-8.3-9.3-16.6-18.9-24.7-28.7zm-71.4 0c-8.1 9.8-16.4 19.4-24.7 28.7-3.1-1.8-6.7-1.3-10.2-.7l-6.3 6.2c6.2 8.8 13.9 16.5 22.7 22.6l6.2-6.2c.5-4 .8-7-.7-10.3 9.3-8.3 18.9-16.6 28.7-24.7-6.5-3.7-12-9.1-15.7-15.6zm24.6 19.3c1.2 12.7 2.2 25.4 2.9 37.9-3.5.8-5.8 3.8-7.8 6.7v8.7c11 1.7 21.8 1.6 32 0V340c-2.5-3.2-4.4-5.5-7.8-6.8.7-12.4 1.6-25.1 2.8-37.7-7.7 1.3-15.8 1.7-22.1-.1zm-76.7 48.5c3.1 3.1 3.1 8.2 0 11.3-3.1 3.1-8.2 3.1-11.3 0-3.1-3.1-3.1-8.2 0-11.3 3.5-3 8.2-3 11.3 0zm187 0c3.1 3.1 3.1 8.2 0 11.3-3.1 3.1-8.2 3.1-11.3 0-3.1-3.1-3.1-8.2 0-11.3 3.5-3 8.3-3 11.3 0zm36.6 12.6c-9.9 13.4-21.9 25.4-35.3 35.3l11.2 11.3c4.2-2.2 8-5.2 11.4-8 2.1 6.4 6.7 13.3 12.7 19.3 12.5 12.5 27.6 17.5 33.9 11.3 6.2-6.3 1.2-21.4-11.3-33.9-6-6-12.9-10.6-19.3-12.7 3.2-3.5 5.6-7.2 8-11.4zm-271.6 0L109 367.7c2.3 4.1 5.1 8.2 8 11.4-6.4 2.1-13.3 6.7-19.37 12.7-12.47 12.5-17.52 27.6-11.3 33.9 6.24 6.3 21.47 1.2 33.97-11.3 6-6 10.6-12.9 12.7-19.3 3.5 3.2 7.2 5.6 11.4 8l11.2-11.2c-13.5-10-25.4-21.9-35.4-35.4zM256 380.2c4.4 0 8 3.6 8 8s-3.6 8-8 8-8-3.6-8-8 3.6-8 8-8zm-25 43V439c4.5 1.4 9.4 2.1 13.7 2.4-3 6-4.7 14.1-4.7 22.6 0 17.7 7.2 32 16 32s16-14.3 16-32c0-8.5-1.7-16.6-4.7-22.6 4.7-.2 9-1.1 13.7-2.4v-15.9c-17.1 2.5-34.1 2.4-50 .1z" fill="#fff" fill-opacity="1"></path></g></svg>