<svg xmlns="http://www.w3.org/2000/svg" viewBox="0 0 512 512" style="height: 512px; width: 512px;"><path d="M0 0h512v512H0z" fill="url(#pattern)" fill-opacity="1"></path><svg><defs><filter id="b" x="-.024" width="1.048" y="-.024" height="1.048" color-interpolation-filters="sRGB"><feGaussianBlur stdDeviation="4.823"></feGaussianBlur></filter><filter id="a" x="-.012" width="1.024" y="-.012" height="1.024" color-interpolation-filters="sRGB"><feGaussianBlur stdDeviation="2.55"></feGaussianBlur></filter><filter id="c" x="-.112" width="1.225" y="-.077" height="1.153" color-interpolation-filters="sRGB"><feGaussianBlur stdDeviation="15.63"></feGaussianBlur></filter><filter id="e" x="-.237" width="1.475" y="-.249" height="1.497" color-interpolation-filters="sRGB"><feGaussianBlur stdDeviation="18.7"></feGaussianBlur></filter><filter id="d" x="-.213" width="1.426" y="-.151" height="1.303" color-interpolation-filters="sRGB"><feGaussianBlur stdDeviation="18.7"></feGaussianBlur></filter></defs><path d="M196.6 1.207c-2.5 11.323-4.8 22.703-10.2 33.383-7-10.68-12.6-20.91-16.7-31.988L2.494 4.338C13 104.9 10.86 175.3 1.979 278.3L15.4 295.5l-9.494 6.3L2.6 462.7l1.019 45.9 112.681 3.1c3.6-16.1 6.5-32.5 13.2-47.3 4.5 14.4 5.7 29.4 7 44.4l160 .3c.8-6.1.7-8.1 2.3-14.4 5.1 4.5 7.8 9.5 10.6 14.5.8-10.1 3.9-19.8 7-29.5 4.8 9.2 6.7 19.4 8.8 29.5l185.2.4-4.6-78.2-21.4-8.2 21.3-4.9 5.8-395.47c-7-6.73-13.3-13.744-18-21.465l-15.1.114-2.1 20.321-1.4 47.23.8 84.87-8.6-97.14c9.3-16.86 2.2-39.69 5.7-55.239-92.1 1.696-184.1.685-276.2-.314z" overflow="visible" color="#000" fill="#ebc893" fill-rule="evenodd" stroke="#e0aa58" enable-background="accumulate"></path><path d="M196.6 1.203c-2.5 11.327-4.8 22.707-10.2 33.387-7-10.68-12.6-20.91-16.7-31.99L2.494 4.336C13 104.9 10.86 175.3 1.979 278.3L15.4 295.5l-9.494 6.3L2.6 462.7l1.019 45.9 112.681 3.1c.5-2.1-7.9-2.3-7.4-4.5L5.244 504.5l-.914-47.3 4.63-153.7 12.42-9-13.093-16.8C16.95 177.3 16.36 104 6.113 5.992l162.687.164c4 10.804 10.3 24.254 17.1 34.664 5.3-10.41 9.5-25.97 12-37.02 89.8.974 173.8 3.521 263.6 1.867 4.6 1.226 10.6.431 11.3-4.149-92.1 1.696-184.1.684-276.2-.315zm296.9.158l-15.1.116-.6 6.277 13.5-2.557c4.6 7.533 9.7 12.383 16.6 18.943l-4.6 389.06-19.9 9.9 4.1-.6 18.2-4.2 5.8-395.47c-7-6.73-13.3-13.748-18-21.469zm9.6 435.739l3.5 69.7-177.7.1c.4 2.1-4.1.2-3.7 2.3l185.2.4-4.6-78.2zm-370 25.1c-1 2.2-2.9.4-3.7 2.6 4.2 14 5.8 29.5 7.1 44l158 .3c1.9-5 .8-9.7 4.3-14.4 5.1 4.5 7.8 9.5 10.6 14.5.8-10.1 3.9-19.8 7-29.5 1.8 3.4 3.2 7 4.3 10.6-1.4-5.6-2.4-8.3-5.1-13.4-3 9.4-6.7 16.2-7.5 26-2.7-4.9-5.4-9.7-10.4-14.1-3.4 4.6-6.2 9.1-8 14l-147.6 3.4c-3.4-14.6-7.1-30.3-9-44z" overflow="visible" color="#000" opacity=".527" fill="#c87137" fill-rule="evenodd" filter="url(#a)" enable-background="accumulate"></path><path d="M200.1 16.1c-2.3 10.67-10.5 21.38-15.6 31.44-6.6-10.06-13.9-19.69-17.7-30.12L17.34 19.05C24.61 113.6 7.605 179.3 16.85 277l18.26 20.1L10.34 309l7.1 141.6.96 43.3 90.2 3.4c3.4-15.2 15-35.6 21.3-49.6 4.3 13.6 15.4 36.7 16.6 50.9l45.1.8 13.8-18.7 14.4 22.2 68.7-8.6c1.8-4.7 4.5-9.1 7.8-13.5 4.8 4.2 7.4 8.9 10 13.6.8-9.5 7.7-19.6 10.6-28.7 4.5 8.6 19.9 28.9 33.1 33.9l114.6 5.6 22.3-14.7 19.4 14.7-14.5-67.6-34.6-14.2 37.5-15.1 2.1-96.9-14.5-21.9 15.2-13.4 5.1-239.63c-5.2-21.09-11.8-24.89-16.9-20.22l-4.2 2.11 2 19.14.7 44.47-7.1 124.23-18.3-137.78c8.8-15.88-3.9-35.38-.6-50.02-67.1 1.24-140.4-13.332-202.8-3.28-14 2.25-23.7 21.31-36.9 24.48-4.3 1.03-13.9-23.45-18.4-23.5z" overflow="visible" enable-background="accumulate" filter="url(#b)" fill-rule="evenodd" fill="#f6e7d0" color="#000"></path><path d="M354 27.39l-70.3 96.91 46.4 97.6-56.2 43.6 33 74.4-30.2 63.2 69.8 48.8 31.6 29.5 31.6-13.3L365.9 335l55.5-36.5 2.1-146.1-56.9-101.83zM116.6 55.48L89.9 123.6s33.7 65.3 35.8 68.8c2.1 3.6-7 118-7 118l42.8 73.8s9.9-82.9 7.1-83.6c-2.8-.7-29.5-42.1-29.5-42.1l23.8-84.3-36.5-37.2z" color="#000" overflow="visible" fill="#f2dbb9" fill-rule="evenodd" filter="url(#c)" enable-background="accumulate"></path><path d="M39.33 172.1l-5.62 108.1L74.45 328 42.84 464.9l96.96-39.3 30.2 42.9 74.4-38.7-80.8-169.9-60.4-16.9z" color="#000" overflow="visible" fill="#eed3a4" fill-rule="evenodd" enable-background="accumulate" filter="url(#d)"></path><path d="M266.9 66.72L324.5 191 434 221.2l21.8-111.6-41.4-68.86z" color="#000" overflow="visible" fill="#eed3a4" fill-rule="evenodd" enable-background="accumulate" filter="url(#e)"></path></svg><g class="" transform="translate(0,0)" style=""><path d="M373.563 18.406c-15.616-.167-27.91 4.622-32.563 14.75-22.778 49.605-48.743 87.14-79.094 117.28 3.047 1.015 6.046 2.29 8.938 3.783 12.987 6.708 25.268 17.78 35.312 30.843 10.044 13.062 17.85 28.114 20.78 43.5.746 3.908 1.16 7.885 1.158 11.843 38.97-24.36 85.058-41.223 140.875-51.312 14.91-2.697 23.652-28.632 21.405-58.656l-35.156-1 30.56-24.813c-4.148-14.507-11.013-28.754-21.155-40.72-15.528-18.314-36.43-31.376-56.72-38.686L381.94 40.812l2.812-21.5c-3.875-.55-7.61-.87-11.188-.907zM246.938 166.562c-1.063.052-2.06.226-3 .47-11.976 10.254-24.61 19.597-37.938 28.28.842.33 1.67.667 2.5 1.032 14.123 6.192 27.438 17.145 38.47 30.625 13.356 16.322 23.62 36.94 25.624 57.75 10.334-10.367 21.24-19.943 32.844-28.72 4.096-6.555 4.93-14.468 3.125-23.938-2.184-11.46-8.642-24.43-17.25-35.625-8.61-11.194-19.38-20.622-29.063-25.625-6.052-3.126-11.154-4.45-15.313-4.25zm-61.907 43.282c-1.385.053-2.69.27-3.968.562-37 20.762-79.088 37.985-127.312 56 .574.042 1.14.093 1.72.156 10.627 1.156 21.076 5.008 31.155 10.875L124.313 261 108.5 293.72c5.995 5.432 11.803 11.477 17.344 18 20.76 24.434 37.964 55.865 47.094 88.092.002.01-.003.022 0 .032 2.98 10.508 5.11 20.916 6.312 31 20.99-48.438 44.38-89.26 72.344-123 7.3-21.48-2.186-48.408-19.063-69.03-9.44-11.538-20.976-20.718-31.53-25.345-5.936-2.604-11.27-3.808-15.97-3.626zm141.626 54.844c-7.31 5.05-14.462 10.51-21.437 16.312 39.16 9.26 60.953 35.722 80.655 62.156 10.464 14.04 20.598 28.11 33.125 40.688 24.19 9.147 43.17 6.38 63.906-14.938-92.165-27.78-96.11-92.61-156.25-104.22zM48.594 284.906c-10.873.225-18.26 5.755-23.344 16.594-5.81 12.387-7.114 32.47.438 57.063 5.75 18.73 16.52 37.718 28.75 51.625 12.23 13.906 25.9 22.076 35.374 22.406h.032c3.717.13 6.553-.682 8.812-2.75l-.187-.188 2.093-2.094c.793-1.168 1.52-2.548 2.187-4.187 2.81-6.9 3.28-18.552-1.844-33-6.885-19.417-19.12-31.932-33.375-34.78l-22.968-4.564 19.813-12.5 38.47-24.186c-16.65-16.822-34.55-27.607-49.376-29.22-1.7-.184-3.323-.25-4.876-.218zm236.25 5.406l-24.53 25.375c100.442 17.878 55.45 141.005 159.31 176.188l-24.78-57.28c32.766 16.15 67.39 22.623 97.72 12.03-135.77-41.948-96.32-126.983-207.72-156.313zm-169.47 38.22l-25.968 16.343c13.18 8.5 23.21 22.565 29.125 39.25 2.57 7.244 4.133 14.205 4.75 20.78l23.44-23.374c-8.08-19.19-19.035-37.566-31.345-53zm38.376 72.374l-42.063 42-.156-.156c-4.255 3.942-9.456 6.765-15.186 7.938 23.268 14.873 44.644 19.346 56.812 9.562 4.26-3.426 7.043-8.36 8.47-14.406-.41-12.684-2.602-26.615-6.657-40.906-.382-1.346-.806-2.686-1.22-4.032z" fill="#fff" fill-opacity="1"></path></g></svg>